<svg width="1920" height="180" viewBox="0 0 1920 180" fill="none" xmlns="http://www.w3.org/2000/svg">
<g opacity="0.2" clip-path="url(#clip0_284_346)">
<g clip-path="url(#clip1_284_346)">
<g opacity="0.71">
<path opacity="0.71" d="M356.872 38.1565V20.0005H325.038V0.486816H284.112V49.9558H274.604V61.5294H267.162V89.2128H258.479V51.0879H236.981V39.9694H224.785V57.7831L213.417 64.0231V99.8761H186.543V21.1365H157.603V35.8846H134.865L128.663 39.2886V47.4582H100.14L94.7634 50.4071V78.0943H82.7735V35.4333H60.451V42.9222H25.1038V60.9615L18.6964 64.4783V82.1986H8.03703V38.4678L-6.43098 35.2894V23.4901H-45.295V73.4143H-48.7729V179.829H-17.5417H8.03703H80.4276V179.705L368.656 179.518V44.6222L356.872 38.1565Z" fill="#FF928F"/>
</g>
<path d="M371.597 59.421V137.705H361.494V106.548L347.181 94.4103V47.2832H329.08L318.556 38.355H305.084V85.8438H272.67V139.756H264.248V64.42L240.677 74.7721V119.759H234.363V50.4966H226.364V30.1426H218.366V25.5015H214.997V29.4307H195.211V45.1397H176.689L172.056 50.4966V114.76H156.273V101.732L146.38 93.3404V62.6343H111.861V87.9835H99.2294V109.407L84.0767 123.689H74.3938V55.8497L47.4535 40.1406V102.981H41.1356V59.7789H9.14183V74.7721H-5.59072V146.536H-11.9047V115.476H-33.3752V105.836L-37.1644 101.195H-60.3155L-62 226.513H337.564H361.494H371.597H399V59.421H371.597Z" fill="#DA3B48"/>
</g>
<g clip-path="url(#clip2_284_346)">
<g opacity="0.71">
<path opacity="0.71" d="M1270.87 38.1565V20.0005H1239.04V0.486816H1198.11V49.9558H1188.6V61.5294H1181.16V89.2128H1172.48V51.0879H1150.98V39.9694H1138.78V57.7831L1127.42 64.0231V99.8761H1100.54V21.1365H1071.6V35.8846H1048.86L1042.66 39.2886V47.4582H1014.14L1008.76 50.4071V78.0943H996.773V35.4333H974.451V42.9222H939.104V60.9615L932.696 64.4783V82.1986H922.037V38.4678L907.569 35.2894V23.4901H868.705V73.4143H865.227V179.829H896.458H922.037H994.428V179.705L1282.66 179.518V44.6222L1270.87 38.1565Z" fill="#FF928F"/>
</g>
<path d="M1285.6 59.421V137.705H1275.49V106.548L1261.18 94.4103V47.2832H1243.08L1232.56 38.355H1219.08V85.8438H1186.67V139.756H1178.25V64.42L1154.68 74.7721V119.759H1148.36V50.4966H1140.36V30.1426H1132.37V25.5015H1129V29.4307H1109.21V45.1397H1090.69L1086.06 50.4966V114.76H1070.27V101.732L1060.38 93.3404V62.6343H1025.86V87.9835H1013.23V109.407L998.077 123.689H988.394V55.8497L961.453 40.1406V102.981H955.136V59.7789H923.142V74.7721H908.409V146.536H902.095V115.476H880.625V105.836L876.836 101.195H853.684L852 226.513H1251.56H1275.49H1285.6H1313V59.421H1285.6Z" fill="#DA3B48"/>
</g>
<g clip-path="url(#clip3_284_346)">
<g opacity="0.71">
<path opacity="0.71" d="M813.872 38.1565V20.0005H782.038V0.486816H741.112V49.9558H731.604V61.5294H724.162V89.2128H715.479V51.0879H693.981V39.9694H681.785V57.7831L670.417 64.0231V99.8761H643.543V21.1365H614.603V35.8846H591.865L585.663 39.2886V47.4582H557.14L551.763 50.4071V78.0943H539.773V35.4333H517.451V42.9222H482.104V60.9615L475.696 64.4783V82.1986H465.037V38.4678L450.569 35.2894V23.4901H411.705V73.4143H408.227V179.829H439.458H465.037H537.428V179.705L825.656 179.518V44.6222L813.872 38.1565Z" fill="#FF928F"/>
</g>
<path d="M828.597 59.421V137.705H818.494V106.548L804.181 94.4103V47.2832H786.08L775.556 38.355H762.084V85.8438H729.67V139.756H721.248V64.42L697.677 74.7721V119.759H691.363V50.4966H683.364V30.1426H675.366V25.5015H671.997V29.4307H652.211V45.1397H633.689L629.056 50.4966V114.76H613.273V101.732L603.38 93.3404V62.6343H568.861V87.9835H556.229V109.407L541.077 123.689H531.394V55.8497L504.453 40.1406V102.981H498.136V59.7789H466.142V74.7721H451.409V146.536H445.095V115.476H423.625V105.836L419.836 101.195H396.684L395 226.513H794.564H818.494H828.597H856V59.421H828.597Z" fill="#DA3B48"/>
</g>
<g clip-path="url(#clip4_284_346)">
<g opacity="0.71">
<path opacity="0.71" d="M1727.87 38.1565V20.0005H1696.04V0.486816H1655.11V49.9558H1645.6V61.5294H1638.16V89.2128H1629.48V51.0879H1607.98V39.9694H1595.78V57.7831L1584.42 64.0231V99.8761H1557.54V21.1365H1528.6V35.8846H1505.86L1499.66 39.2886V47.4582H1471.14L1465.76 50.4071V78.0943H1453.77V35.4333H1431.45V42.9222H1396.1V60.9615L1389.7 64.4783V82.1986H1379.04V38.4678L1364.57 35.2894V23.4901H1325.7V73.4143H1322.23V179.829H1353.46H1379.04H1451.43V179.705L1739.66 179.518V44.6222L1727.87 38.1565Z" fill="#FF928F"/>
</g>
<path d="M1742.6 59.421V137.705H1732.49V106.548L1718.18 94.4103V47.2832H1700.08L1689.56 38.355H1676.08V85.8438H1643.67V139.756H1635.25V64.42L1611.68 74.7721V119.759H1605.36V50.4966H1597.36V30.1426H1589.37V25.5015H1586V29.4307H1566.21V45.1397H1547.69L1543.06 50.4966V114.76H1527.27V101.732L1517.38 93.3404V62.6343H1482.86V87.9835H1470.23V109.407L1455.08 123.689H1445.39V55.8497L1418.45 40.1406V102.981H1412.14V59.7789H1380.14V74.7721H1365.41V146.536H1359.1V115.476H1337.62V105.836L1333.84 101.195H1310.68L1309 226.513H1708.56H1732.49H1742.6H1770V59.421H1742.6Z" fill="#DA3B48"/>
</g>
<g clip-path="url(#clip5_284_346)">
<g opacity="0.71">
<path opacity="0.71" d="M2186.87 38.1565V20.0005H2155.04V0.486816H2114.11V49.9558H2104.6V61.5294H2097.16V89.2128H2088.48V51.0879H2066.98V39.9694H2054.78V57.7831L2043.42 64.0231V99.8761H2016.54V21.1365H1987.6V35.8846H1964.86L1958.66 39.2886V47.4582H1930.14L1924.76 50.4071V78.0943H1912.77V35.4333H1890.45V42.9222H1855.1V60.9615L1848.7 64.4783V82.1986H1838.04V38.4678L1823.57 35.2894V23.4901H1784.7V73.4143H1781.23V179.829H1812.46H1838.04H1910.43V179.705L2198.66 179.518V44.6222L2186.87 38.1565Z" fill="#FF928F"/>
</g>
<path d="M2201.6 59.421V137.705H2191.49V106.548L2177.18 94.4103V47.2832H2159.08L2148.56 38.355H2135.08V85.8438H2102.67V139.756H2094.25V64.42L2070.68 74.7721V119.759H2064.36V50.4966H2056.36V30.1426H2048.37V25.5015H2045V29.4307H2025.21V45.1397H2006.69L2002.06 50.4966V114.76H1986.27V101.732L1976.38 93.3404V62.6343H1941.86V87.9835H1929.23V109.407L1914.08 123.689H1904.39V55.8497L1877.45 40.1406V102.981H1871.14V59.7789H1839.14V74.7721H1824.41V146.536H1818.1V115.476H1796.62V105.836L1792.84 101.195H1769.68L1768 226.513H2167.56H2191.49H2201.6H2229V59.421H2201.6Z" fill="#DA3B48"/>
</g>
</g>
<defs>
<clipPath id="clip0_284_346">
<rect width="1920" height="180" fill="white"/>
</clipPath>
<clipPath id="clip1_284_346">
<rect width="461" height="226.026" fill="white" transform="translate(-62 0.486816)"/>
</clipPath>
<clipPath id="clip2_284_346">
<rect width="461" height="226.026" fill="white" transform="translate(852 0.486816)"/>
</clipPath>
<clipPath id="clip3_284_346">
<rect width="461" height="226.026" fill="white" transform="translate(395 0.486816)"/>
</clipPath>
<clipPath id="clip4_284_346">
<rect width="461" height="226.026" fill="white" transform="translate(1309 0.486816)"/>
</clipPath>
<clipPath id="clip5_284_346">
<rect width="461" height="226.026" fill="white" transform="translate(1768 0.486816)"/>
</clipPath>
</defs>
</svg>
